<?xml version="1.0" encoding="UTF-8" standalone="no"?>
<!-- Created with Inkscape (http://www.inkscape.org/) -->

<svg
   width="256"
   height="256"
   viewBox="0 0 256 256"
   version="1.1"
   id="svg5"
   inkscape:version="1.2.2 (b0a8486541, 2022-12-01)"
   sodipodi:docname="icon.svg"
   inkscape:export-filename="icon.png"
   inkscape:export-xdpi="96"
   inkscape:export-ydpi="96"
   xmlns:inkscape="http://www.inkscape.org/namespaces/inkscape"
   xmlns:sodipodi="http://sodipodi.sourceforge.net/DTD/sodipodi-0.dtd"
   xmlns="http://www.w3.org/2000/svg"
   xmlns:svg="http://www.w3.org/2000/svg">
  <sodipodi:namedview
     id="namedview7"
     pagecolor="#ffffff"
     bordercolor="#000000"
     borderopacity="0.25"
     inkscape:showpageshadow="2"
     inkscape:pageopacity="0"
     inkscape:pagecheckerboard="false"
     inkscape:deskcolor="#d1d1d1"
     inkscape:document-units="mm"
     showgrid="false"
     inkscape:zoom="1.6"
     inkscape:cx="96.25"
     inkscape:cy="142.1875"
     inkscape:window-width="1348"
     inkscape:window-height="712"
     inkscape:window-x="6"
     inkscape:window-y="44"
     inkscape:window-maximized="1"
     inkscape:current-layer="g2076"
     showguides="true" />
  <defs
     id="defs2" />
  <g
     inkscape:label="Warstwa 1"
     inkscape:groupmode="layer"
     id="layer1"
     transform="translate(-12.047555,-61.047146)">
    <g
       id="g2076"
       transform="translate(2.7173106,2.5291921)">
      <g
         id="g1876"
         inkscape:label="Obraz"
         transform="matrix(1.2552004,0,0,1.2552004,-37.249398,45.25774)"
         style="display:inline;stroke:none;stroke-width:3.0111;stroke-dasharray:none;stroke-opacity:1">
        <rect
           style="display:inline;fill:#00e3eb;fill-opacity:1;stroke:none;stroke-width:3.0111;stroke-dasharray:none;stroke-opacity:1"
           id="rect1862"
           width="101.10181"
           height="64.878708"
           x="54.449097"
           y="116.06065"
           ry="3.4144354" />
        <path
           id="path1864"
           style="fill:#348d49;fill-opacity:1;stroke:none;stroke-width:3.0111;stroke-dasharray:none;stroke-opacity:1"
           inkscape:transform-center-x="3.1754925e-06"
           inkscape:transform-center-y="-9.0090143"
           d="m 115.2648,160.27294 -11.74916,-11.02362 -13.771247,12.92117 13.612087,11.31558 z" />
        <path
           id="path1866"
           style="display:inline;fill:#1c7500;fill-opacity:1;stroke:none;stroke-width:3.0111;stroke-dasharray:none;stroke-opacity:1"
           d="m 54.448873,166.35367 v 11.17141 c 0,0.11823 0.006,0.23479 0.01757,0.34985 0.01161,0.11506 0.02901,0.2287 0.05168,0.34003 0.02267,0.11134 0.05108,0.22058 0.08423,0.32763 0.03316,0.10705 0.07112,0.21148 0.114205,0.31368 0.04308,0.10219 0.09122,0.20191 0.14366,0.29869 0.05244,0.0968 0.109293,0.19084 0.170533,0.28163 0.06124,0.0908 0.126896,0.17827 0.19637,0.26252 0.06947,0.0842 0.14248,0.16522 0.219625,0.24236 0.07715,0.0771 0.15811,0.15067 0.242362,0.22014 0.08425,0.0695 0.172237,0.13513 0.263033,0.19637 0.0908,0.0612 0.184344,0.11809 0.28112,0.17054 0.09678,0.0524 0.196497,0.10006 0.29869,0.14314 0.102193,0.0431 0.207146,0.0816 0.314193,0.11472 0.107046,0.0332 0.216292,0.061 0.327628,0.0837 0.09795,0.0199 0.197831,0.0341 0.29869,0.0455 h 60.550308 34.50435 c 0.10088,-0.0114 0.20124,-0.0255 0.29921,-0.0455 0.11134,-0.0227 0.22058,-0.0506 0.32763,-0.0837 0.10705,-0.0332 0.212,-0.0716 0.31419,-0.11472 0.10219,-0.0431 0.20192,-0.0907 0.29869,-0.14314 0.0968,-0.0524 0.19033,-0.1093 0.28112,-0.17054 0.0908,-0.0612 0.17878,-0.12689 0.26303,-0.19637 0.0843,-0.0695 0.16471,-0.14299 0.24185,-0.22014 0.0771,-0.0771 0.15067,-0.15811 0.22014,-0.24236 0.0695,-0.0842 0.13513,-0.17172 0.19637,-0.26252 0.0612,-0.0908 0.11809,-0.18486 0.17053,-0.28163 0.0524,-0.0968 0.10058,-0.1965 0.14366,-0.29869 0.0431,-0.1022 0.0811,-0.20663 0.11421,-0.31368 0.0332,-0.10705 0.0616,-0.21629 0.0842,-0.32763 0.0227,-0.11133 0.0396,-0.22497 0.0512,-0.34003 0.0116,-0.11506 0.0176,-0.23162 0.0176,-0.34985 v -13.42502 l -24.01404,-26.6454 -28.18019,31.26889 -25.879038,-21.51341 z" />
        <circle
           style="fill:#e8ff00;fill-opacity:1;stroke:none;stroke-width:3.0111;stroke-dasharray:none;stroke-opacity:1"
           id="circle1868"
           cx="73.048439"
           cy="129.79665"
           r="7.9413075" />
        <path
           id="path1870"
           style="fill:#ffffff;fill-opacity:1;stroke:none;stroke-width:3.0111;stroke-dasharray:none;stroke-opacity:1"
           d="m 100.69628,139.19965 a 5.0312506,4.9517065 0 0 0 3.62974,-1.53427 5.0312506,4.9517065 0 0 0 2.44688,0.62787 5.0312506,4.9517065 0 0 0 2.23914,-0.51987 5.0312506,4.9517065 0 0 0 0.67851,0.0455 5.0312506,4.9517065 0 0 0 5.03122,-4.95164 5.0312506,4.9517065 0 0 0 -5.03122,-4.95163 5.0312506,4.9517065 0 0 0 -0.32194,0.015 5.0312506,4.9517065 0 0 0 -4.28656,-2.36006 5.0312506,4.9517065 0 0 0 -2.24224,0.5209 5.0312506,4.9517065 0 0 0 -0.0941,-0.0103 5.0312506,4.9517065 0 0 0 -3.669021,-1.56476 5.0312506,4.9517065 0 0 0 -3.7543,1.65985 5.0312506,4.9517065 0 0 0 -3.09335,2.70578 5.0312506,4.9517065 0 0 0 -2.56935,4.3124 5.0312506,4.9517065 0 0 0 5.03122,4.95111 5.0312506,4.9517065 0 0 0 2.24224,-0.52089 5.0312506,4.9517065 0 0 0 0.094,0.0103 5.0312506,4.9517065 0 0 0 3.669031,1.56476 z" />
        <path
           id="path1872"
           style="fill:#ffffff;fill-opacity:1;stroke:none;stroke-width:3.0111;stroke-dasharray:none;stroke-opacity:1"
           d="m 135.5726,118.48372 a 5.1475224,5.1475224 0 0 0 -3.21996,1.13172 4.5407991,4.5407991 0 0 0 -2.2381,-0.19379 v 5.2e-4 a 4.5407991,4.5407991 0 0 0 -3.2644,2.37401 4.5407991,4.5407991 0 0 0 -0.49041,0.0398 4.5407991,4.5407991 0 0 0 -3.85145,5.13871 4.5407991,4.5407991 0 0 0 3.79512,3.84266 4.5035801,5.8479552 81.852818 0 0 4.19768,0.67644 4.5035801,5.8479552 81.852818 0 0 0.83612,-0.17105 4.5407991,4.5407991 0 0 0 3.45664,1.03973 4.5035801,5.8479552 66.229352 0 0 4.22403,-0.47904 4.5035801,5.8479552 66.229352 0 0 1.95699,-1.26039 4.5407991,4.5407991 0 0 0 3.65921,0 4.5407991,4.5407991 0 0 0 2.32544,-5.98568 4.5407991,4.5407991 0 0 0 -1.87534,-2.09599 4.5035801,5.8479552 66.229352 0 0 -0.22169,-0.70332 4.5035801,5.8479552 66.229352 0 0 -5.99654,-2.16317 5.1475224,5.1475224 0 0 0 -3.29334,-1.19115 z" />
        <path
           id="path1874"
           style="display:inline;fill:none;fill-opacity:1;stroke:#e5e5e5;stroke-width:3.0111;stroke-dasharray:none;stroke-opacity:1"
           d="m 57.863501,116.06049 c -1.891595,0 -3.414262,1.52318 -3.414262,3.41478 v 46.87776 l -5.16e-4,5.2e-4 v 11.17141 c 0,0.11823 0.006,0.23479 0.01757,0.34985 0.01161,0.11506 0.02901,0.2287 0.05168,0.34003 0.02267,0.11133 0.05108,0.22058 0.08423,0.32763 0.03316,0.10705 0.07112,0.21147 0.114204,0.31367 0.0862,0.20455 0.191625,0.3986 0.314193,0.58033 0.06124,0.0908 0.126897,0.17826 0.196371,0.26251 0.03311,0.0402 0.07002,0.0767 0.104903,0.11524 0.03821,0.0424 0.07433,0.0867 0.114721,0.12713 h 5.17e-4 c 0.15429,0.15429 0.323287,0.29403 0.504879,0.41651 0.0908,0.0612 0.184344,0.11808 0.28112,0.17053 h 5.16e-4 c 0.03134,0.017 0.0647,0.0305 0.09663,0.0465 0.347443,0.17433 0.728102,0.29202 1.131714,0.339 0.0035,4e-4 0.0068,0.001 0.01034,0.002 0.128576,0.0146 0.258593,0.0238 0.39119,0.0238 H 152.1363 c 0.59112,0 1.14651,-0.14862 1.63039,-0.41083 0.0968,-0.0524 0.19033,-0.10929 0.28112,-0.17053 h 5.2e-4 c 0.0907,-0.0611 0.17837,-0.12698 0.26251,-0.19637 0.0843,-0.0695 0.16471,-0.14299 0.24185,-0.22014 0.1544,-0.15437 0.29396,-0.32318 0.41651,-0.50488 0.0612,-0.0908 0.11809,-0.18487 0.17053,-0.28164 0.0523,-0.0967 0.10063,-0.19665 0.14366,-0.29869 0.17221,-0.40865 0.26769,-0.85846 0.26769,-1.33118 v -58.04969 c 0,-1.8916 -1.52318,-3.41478 -3.41478,-3.41478 z" />
      </g>
      <g
         id="g1402"
         inkscape:label="Obraz"
         transform="matrix(1.2552004,0,0,1.2552004,-37.249398,-45.016577)"
         style="display:inline;stroke:none;stroke-opacity:1">
        <rect
           style="display:inline;fill:#00e3eb;fill-opacity:1;stroke:none;stroke-width:1;stroke-dasharray:none;stroke-opacity:1"
           id="rect1390"
           width="101.10181"
           height="64.878708"
           x="54.449097"
           y="116.06065"
           ry="3.4144354" />
        <path
           id="path1392"
           style="fill:#348d49;fill-opacity:1;stroke:none;stroke-width:1.49515;stroke-dasharray:none;stroke-opacity:1"
           inkscape:transform-center-x="3.1754925e-06"
           inkscape:transform-center-y="-9.0090143"
           d="m 115.2648,160.27294 -11.74916,-11.02362 -13.771247,12.92117 13.612087,11.31558 z" />
        <path
           id="path1394"
           style="display:inline;fill:#1c7500;fill-opacity:1;stroke:none;stroke-width:1.113;stroke-dasharray:none;stroke-opacity:1"
           d="m 54.448873,166.35367 v 11.17141 c 0,0.11823 0.006,0.23479 0.01757,0.34985 0.01161,0.11506 0.02901,0.2287 0.05168,0.34003 0.02267,0.11134 0.05108,0.22058 0.08423,0.32763 0.03316,0.10705 0.07112,0.21148 0.114205,0.31368 0.04308,0.10219 0.09122,0.20191 0.14366,0.29869 0.05244,0.0968 0.109293,0.19084 0.170533,0.28163 0.06124,0.0908 0.126896,0.17827 0.19637,0.26252 0.06947,0.0842 0.14248,0.16522 0.219625,0.24236 0.07715,0.0771 0.15811,0.15067 0.242362,0.22014 0.08425,0.0695 0.172237,0.13513 0.263033,0.19637 0.0908,0.0612 0.184344,0.11809 0.28112,0.17054 0.09678,0.0524 0.196497,0.10006 0.29869,0.14314 0.102193,0.0431 0.207146,0.0816 0.314193,0.11472 0.107046,0.0332 0.216292,0.061 0.327628,0.0837 0.09795,0.0199 0.197831,0.0341 0.29869,0.0455 h 60.550308 34.50435 c 0.10088,-0.0114 0.20124,-0.0255 0.29921,-0.0455 0.11134,-0.0227 0.22058,-0.0506 0.32763,-0.0837 0.10705,-0.0332 0.212,-0.0716 0.31419,-0.11472 0.10219,-0.0431 0.20192,-0.0907 0.29869,-0.14314 0.0968,-0.0524 0.19033,-0.1093 0.28112,-0.17054 0.0908,-0.0612 0.17878,-0.12689 0.26303,-0.19637 0.0843,-0.0695 0.16471,-0.14299 0.24185,-0.22014 0.0771,-0.0771 0.15067,-0.15811 0.22014,-0.24236 0.0695,-0.0842 0.13513,-0.17172 0.19637,-0.26252 0.0612,-0.0908 0.11809,-0.18486 0.17053,-0.28163 0.0524,-0.0968 0.10058,-0.1965 0.14366,-0.29869 0.0431,-0.1022 0.0811,-0.20663 0.11421,-0.31368 0.0332,-0.10705 0.0616,-0.21629 0.0842,-0.32763 0.0227,-0.11133 0.0396,-0.22497 0.0512,-0.34003 0.0116,-0.11506 0.0176,-0.23162 0.0176,-0.34985 v -13.42502 l -24.01404,-26.6454 -28.18019,31.26889 -25.879038,-21.51341 z" />
        <circle
           style="fill:#e8ff00;fill-opacity:1;stroke:none;stroke-width:1;stroke-dasharray:none;stroke-opacity:1"
           id="circle1396"
           cx="73.048439"
           cy="129.79665"
           r="7.9413075" />
        <path
           id="path1398"
           style="fill:#ffffff;fill-opacity:1;stroke:none;stroke-width:1;stroke-dasharray:none;stroke-opacity:1"
           d="m 100.69628,139.19965 a 5.0312506,4.9517065 0 0 0 3.62974,-1.53427 5.0312506,4.9517065 0 0 0 2.44688,0.62787 5.0312506,4.9517065 0 0 0 2.23914,-0.51987 5.0312506,4.9517065 0 0 0 0.67851,0.0455 5.0312506,4.9517065 0 0 0 5.03122,-4.95164 5.0312506,4.9517065 0 0 0 -5.03122,-4.95163 5.0312506,4.9517065 0 0 0 -0.32194,0.015 5.0312506,4.9517065 0 0 0 -4.28656,-2.36006 5.0312506,4.9517065 0 0 0 -2.24224,0.5209 5.0312506,4.9517065 0 0 0 -0.0941,-0.0103 5.0312506,4.9517065 0 0 0 -3.669021,-1.56476 5.0312506,4.9517065 0 0 0 -3.7543,1.65985 5.0312506,4.9517065 0 0 0 -3.09335,2.70578 5.0312506,4.9517065 0 0 0 -2.56935,4.3124 5.0312506,4.9517065 0 0 0 5.03122,4.95111 5.0312506,4.9517065 0 0 0 2.24224,-0.52089 5.0312506,4.9517065 0 0 0 0.094,0.0103 5.0312506,4.9517065 0 0 0 3.669031,1.56476 z" />
        <path
           id="path1400"
           style="fill:#ffffff;fill-opacity:1;stroke:none;stroke-width:1;stroke-dasharray:none;stroke-opacity:1"
           d="m 135.5726,118.48372 a 5.1475224,5.1475224 0 0 0 -3.21996,1.13172 4.5407991,4.5407991 0 0 0 -2.2381,-0.19379 v 5.2e-4 a 4.5407991,4.5407991 0 0 0 -3.2644,2.37401 4.5407991,4.5407991 0 0 0 -0.49041,0.0398 4.5407991,4.5407991 0 0 0 -3.85145,5.13871 4.5407991,4.5407991 0 0 0 3.79512,3.84266 4.5035801,5.8479552 81.852818 0 0 4.19768,0.67644 4.5035801,5.8479552 81.852818 0 0 0.83612,-0.17105 4.5407991,4.5407991 0 0 0 3.45664,1.03973 4.5035801,5.8479552 66.229352 0 0 4.22403,-0.47904 4.5035801,5.8479552 66.229352 0 0 1.95699,-1.26039 4.5407991,4.5407991 0 0 0 3.65921,0 4.5407991,4.5407991 0 0 0 2.32544,-5.98568 4.5407991,4.5407991 0 0 0 -1.87534,-2.09599 4.5035801,5.8479552 66.229352 0 0 -0.22169,-0.70332 4.5035801,5.8479552 66.229352 0 0 -5.99654,-2.16317 5.1475224,5.1475224 0 0 0 -3.29334,-1.19115 z" />
        <path
           id="path1858"
           style="display:inline;fill:none;fill-opacity:1;stroke:#e5e5e5;stroke-width:3.0111;stroke-dasharray:none;stroke-opacity:1"
           d="m 57.863501,116.06049 c -1.891595,0 -3.414262,1.52318 -3.414262,3.41478 v 46.87776 l -5.16e-4,5.2e-4 v 11.17141 c 0,0.11823 0.006,0.23479 0.01757,0.34985 0.01161,0.11506 0.02901,0.2287 0.05168,0.34003 0.02267,0.11133 0.05108,0.22058 0.08423,0.32763 0.03316,0.10705 0.07112,0.21147 0.114204,0.31367 0.0862,0.20455 0.191625,0.3986 0.314193,0.58033 0.06124,0.0908 0.126897,0.17826 0.196371,0.26251 0.03311,0.0402 0.07002,0.0767 0.104903,0.11524 0.03821,0.0424 0.07433,0.0867 0.114721,0.12713 h 5.17e-4 c 0.15429,0.15429 0.323287,0.29403 0.504879,0.41651 0.0908,0.0612 0.184344,0.11808 0.28112,0.17053 h 5.16e-4 c 0.03134,0.017 0.0647,0.0305 0.09663,0.0465 0.347443,0.17433 0.728102,0.29202 1.131714,0.339 0.0035,4e-4 0.0068,0.001 0.01034,0.002 0.128576,0.0146 0.258593,0.0238 0.39119,0.0238 H 152.1363 c 0.59112,0 1.14651,-0.14862 1.63039,-0.41083 0.0968,-0.0524 0.19033,-0.10929 0.28112,-0.17053 h 5.2e-4 c 0.0907,-0.0611 0.17837,-0.12698 0.26251,-0.19637 0.0843,-0.0695 0.16471,-0.14299 0.24185,-0.22014 0.1544,-0.15437 0.29396,-0.32318 0.41651,-0.50488 0.0612,-0.0908 0.11809,-0.18487 0.17053,-0.28164 0.0523,-0.0967 0.10063,-0.19665 0.14366,-0.29869 0.17221,-0.40865 0.26769,-0.85846 0.26769,-1.33118 v -58.04969 c 0,-1.8916 -1.52318,-3.41478 -3.41478,-3.41478 z" />
      </g>
      <path
         id="path1461"
         style="fill:#808080;fill-opacity:1;stroke:#737373;stroke-width:1.2552;stroke-dasharray:none;stroke-opacity:1;paint-order:normal"
         inkscape:transform-center-x="6.3474263"
         d="m 205.17074,120.33334 -38.08441,21.98769 38.08441,21.98834 v -13.93998 h 3.94642 c 17.40394,2.70235 35.47872,21.48901 35.71041,37.08907 -1.06034,15.70369 -19.90401,36.67269 -35.71041,37.08907 h -3.94642 v -13.93998 l -38.08441,21.98769 38.08441,21.98834 V 240.6436 h 3.94641 c 25.59399,-3.55298 35.31511,-29.84843 35.71042,-53.18514 -1.91113,-23.8779 -12.16002,-52.60443 -35.71042,-53.18514 h -3.94641 z"
         sodipodi:nodetypes="ccccccccccccccccc"
         inkscape:transform-center-y="-1.79257e-06" />
      <text
         xml:space="preserve"
         style="font-size:32px;fill:#ffffff;fill-opacity:1;stroke:#404040;stroke-width:1.39704;stroke-dasharray:none;stroke-opacity:1"
         x="161.54993"
         y="199.09128"
         id="text1734"><tspan
           sodipodi:role="line"
           id="tspan1732"
           style="font-size:32px;fill:#ffffff;fill-opacity:1;stroke:#404040;stroke-width:1.39704;stroke-opacity:1"
           x="161.54993"
           y="199.09128">EXIF</tspan></text>
    </g>
  </g>
</svg>
